<svg width="16" height="16" viewBox="0 0 16 16" fill="none" xmlns="http://www.w3.org/2000/svg">
<path d="M8 0C6.41775 0 4.87103 0.469192 3.55544 1.34824C2.23985 2.22729 1.21447 3.47672 0.608967 4.93853C0.00346626 6.40034 -0.15496 8.00887 0.153721 9.56072C0.462403 11.1126 1.22433 12.538 2.34315 13.6569C3.46197 14.7757 4.88743 15.5376 6.43928 15.8463C7.99113 16.155 9.59966 15.9965 11.0615 15.391C12.5233 14.7855 13.7727 13.7602 14.6518 12.4446C15.5308 11.129 16 9.58225 16 8C16 5.87827 15.1571 3.84344 13.6569 2.34315C12.1566 0.842855 10.1217 0 8 0ZM4.1056 5.7872C4.20049 5.55847 4.36312 5.36427 4.57163 5.23069C4.78015 5.09712 5.02455 5.03057 5.272 5.04C6.1776 5.04 7.0832 5.04 7.992 5.04C8.9008 5.04 9.8096 5.04 10.712 5.04C10.9568 5.0296 11.199 5.09259 11.4077 5.22088C11.6164 5.34917 11.782 5.53691 11.8832 5.76C11.9035 5.78822 11.9168 5.82092 11.9219 5.85533C11.927 5.88975 11.9238 5.92488 11.9125 5.95779C11.9012 5.99071 11.8822 6.02043 11.8571 6.04448C11.8319 6.06852 11.8014 6.08619 11.768 6.096L8.16 7.976C8.11447 8.0021 8.06289 8.01584 8.0104 8.01584C7.95791 8.01584 7.90634 8.0021 7.8608 7.976L4.2064 6.08C4.17739 6.07135 4.15085 6.05591 4.129 6.03496C4.10714 6.014 4.0906 5.98813 4.08075 5.95951C4.07089 5.93088 4.06801 5.90031 4.07233 5.87035C4.07665 5.84038 4.08806 5.81187 4.1056 5.7872ZM11.9776 9.9296C11.9321 10.2198 11.7835 10.4838 11.5589 10.6731C11.3343 10.8624 11.0489 10.9643 10.7552 10.96C10.0128 10.96 9.2704 10.96 8.5296 10.96H5.2688C4.99201 10.9661 4.72118 10.879 4.4998 10.7128C4.27841 10.5465 4.1193 10.3107 4.048 10.0432C4.01934 9.93891 4.00428 9.83135 4.0032 9.7232C4.0032 8.8528 4.0032 7.9824 4.0032 7.1104C4.0032 6.8848 4.144 6.8016 4.3472 6.9056C5.4832 7.49653 6.61814 8.08853 7.752 8.6816C7.82829 8.72679 7.91533 8.75064 8.004 8.75064C8.09267 8.75064 8.17971 8.72679 8.256 8.6816C9.38453 8.0896 10.5147 7.50293 11.6464 6.9216C11.6784 6.90295 11.7129 6.88894 11.7488 6.88C11.7793 6.86944 11.8121 6.86682 11.8439 6.87241C11.8758 6.87799 11.9056 6.89158 11.9308 6.91191C11.9559 6.93224 11.9754 6.95863 11.9876 6.9886C11.9997 7.01856 12.0039 7.05112 12 7.0832C12 7.83733 12 8.59093 12 9.344C12.0086 9.53948 12.0011 9.73534 11.9776 9.9296Z" fill="white"/>
</svg>
