<svg width="40" height="40" viewBox="0 0 40 40" fill="none" xmlns="http://www.w3.org/2000/svg">
<path d="M18.0056 39.9177C14.9244 39.6228 11.8049 38.5169 9.12517 36.7695C6.87961 35.3052 6.37251 34.7032 6.37251 33.502C6.37251 31.089 9.02708 26.8627 13.5689 22.0448C16.1483 19.3085 19.7413 16.1013 20.1299 16.1881C20.8851 16.3569 26.9243 22.2444 29.185 25.0159C32.7601 29.3986 34.4036 32.987 33.5687 34.5869C32.9339 35.803 28.9955 38.1799 26.1021 39.0931C23.7174 39.8457 20.5855 40.1647 18.0056 39.9177ZM3.33963 30.9932C1.47363 28.132 0.53086 25.3153 0.0756855 21.2413C-0.0746141 19.8961 -0.0207546 19.1266 0.416977 16.3655C0.962546 12.9241 2.92342 8.94287 5.2796 6.49275C6.28311 5.44923 6.37273 5.4238 7.59595 5.83565C9.0814 6.33578 10.6677 7.43077 13.1279 9.65413L14.5633 10.9514L13.7795 11.9138C10.1409 16.3814 6.29985 22.7141 4.85227 26.6319C4.06531 28.7618 3.7479 30.8998 4.0865 31.79C4.31511 32.3909 4.10513 32.1669 3.33963 30.9932ZM36.0938 31.4798C36.2782 30.5804 36.045 28.9286 35.4986 27.2626C34.3152 23.6546 30.3596 16.9426 26.7274 12.379L25.584 10.9424L26.821 9.80718C28.4362 8.32488 29.5576 7.4373 30.7677 6.68355C31.7225 6.08875 33.087 5.56221 33.6735 5.56221C34.0351 5.56221 35.3081 6.88262 36.3358 8.32361C37.9275 10.5554 39.0985 13.2608 39.6917 16.0772C40.075 17.897 40.107 21.7922 39.7535 23.6075C39.4633 25.0972 38.8508 27.0296 38.2532 28.3402C37.8055 29.3222 36.6918 31.2294 36.2038 31.8499C35.9529 32.169 35.9527 32.1683 36.0938 31.4798ZM18.3355 4.8809C16.6595 4.03031 14.0741 3.11726 12.6459 2.87161C12.1452 2.78549 11.2912 2.73746 10.7479 2.76488C9.56958 2.82435 9.62221 2.76276 11.5125 1.87016C13.0841 1.12807 14.395 0.691687 16.1746 0.318227C18.1765 -0.101888 21.9394 -0.106818 23.9095 0.308093C26.0373 0.756231 28.5428 1.68813 29.9547 2.5565L30.3743 2.81459L29.4116 2.766C27.4984 2.66944 24.7102 3.44193 21.7167 4.89793C20.8138 5.33709 20.0283 5.68784 19.9711 5.67737C19.914 5.6669 19.1779 5.30849 18.3355 4.8809Z" fill="#212121"/>
</svg>
