<svg width="18" height="17" viewBox="0 0 18 17" fill="none" xmlns="http://www.w3.org/2000/svg">
<g clip-path="url(#clip0_1658_8564)">
<path d="M0.927246 2.10663C0.927246 1.5679 1.1158 1.12346 1.4929 0.773299C1.87 0.423125 2.36025 0.248047 2.96361 0.248047C3.5562 0.248047 4.03565 0.420426 4.40199 0.765218C4.77909 1.12077 4.96764 1.58406 4.96764 2.15511C4.96764 2.67229 4.78448 3.10325 4.41815 3.44804C4.04105 3.8036 3.54542 3.98137 2.93128 3.98137H2.91512C2.32252 3.98137 1.84307 3.8036 1.47674 3.44804C1.11041 3.09249 0.927246 2.64534 0.927246 2.10663ZM1.13735 16.248V5.45208H4.72522V16.248H1.13735ZM6.71309 16.248H10.301V10.2197C10.301 9.84263 10.3441 9.55173 10.4303 9.34702C10.5811 8.98069 10.8101 8.67092 11.1171 8.41773C11.4242 8.16453 11.8094 8.03793 12.2727 8.03793C13.4794 8.03793 14.0828 8.85139 14.0828 10.4783V16.248H17.6707V10.0581C17.6707 8.46352 17.2936 7.2541 16.5393 6.42986C15.7851 5.60561 14.7885 5.19349 13.5494 5.19349C12.1596 5.19349 11.0767 5.79147 10.301 6.98743V7.01975H10.2848L10.301 6.98743V5.45208H6.71309C6.73464 5.79685 6.74542 6.8689 6.74542 8.66824C6.74542 10.4676 6.73464 12.9941 6.71309 16.248Z" fill="white"/>
</g>
<defs>
<clipPath id="clip0_1658_8564">
<rect width="16.7434" height="16" fill="white" transform="translate(0.927246 0.248047)"/>
</clipPath>
</defs>
</svg>
