<svg width="16" height="16" viewBox="0 0 16 16" fill="none" xmlns="http://www.w3.org/2000/svg">
<path d="M8.00001 0C3.60905 0 0.0358382 3.57333 0.00028385 7.94667C-0.0174933 10.08 0.800256 12.1067 2.31132 13.6178C3.8046 15.1467 5.81342 15.9822 7.94668 16H8.00001C12.391 16 15.9642 12.4267 15.9997 8.05333C16.0353 3.64444 12.4621 0.0355556 8.00001 0ZM11.8754 10.6667L11.5377 11.0044L11.5199 11.0222C10.9332 11.6089 10.4355 11.7511 9.65329 11.52C8.83554 11.2711 8.10667 10.8267 7.44892 10.2933C6.50673 9.52889 5.49343 8.53333 4.83567 7.50222C4.17792 6.43556 3.96459 5.31556 4.88901 4.39111L4.90678 4.37333L5.24455 4.03556C5.49343 3.78667 5.9023 3.78667 6.16896 4.03556L7.21781 5.08444C7.4667 5.33333 7.4667 5.74222 7.21781 6.00889L6.59561 6.63111L6.61339 6.64889C7.3067 7.69778 8.21334 8.60444 9.26219 9.29778L9.27997 9.31556L9.90217 8.69333C10.151 8.44444 10.5599 8.44444 10.8266 8.69333L11.8754 9.74222C12.1421 10.0089 12.1421 10.4178 11.8754 10.6667Z" fill="white"/>
</svg>
