<svg width="38" height="40" viewBox="0 0 38 40" fill="none" xmlns="http://www.w3.org/2000/svg">
<path d="M31.6228 21.0681C31.6029 17.8015 33.2593 15.336 36.612 13.5202C34.7361 11.1259 31.9022 9.80863 28.1603 9.55051C24.618 9.30129 20.7463 11.393 19.3294 11.393C17.8326 11.393 14.4 9.63952 11.7059 9.63952C6.13791 9.71963 0.220703 13.6004 0.220703 21.4953C0.220703 23.8273 0.699668 26.2365 1.6576 28.7227C2.93484 31.9893 7.54487 40 12.3545 39.8665C14.869 39.8131 16.6452 38.2733 19.9181 38.2733C23.0913 38.2733 24.7377 39.8665 27.5416 39.8665C32.3912 39.8042 36.5621 32.5234 37.7795 29.2479C31.2736 26.5154 31.6228 21.2372 31.6228 21.0681ZM25.975 6.45305C28.6991 3.5692 28.4497 0.94348 28.3698 0C25.965 0.124611 23.1811 1.45972 21.5945 3.10636C19.8483 4.86871 18.8205 7.0494 19.04 9.50601C21.6444 9.68402 24.0193 8.49132 25.975 6.45305Z" fill="#212121"/>
</svg>
