<svg width="40" height="40" viewBox="0 0 40 40" fill="none" xmlns="http://www.w3.org/2000/svg">
<path d="M0 4.64646C0 3.29963 0.450463 2.18852 1.35135 1.31313C2.25224 0.437696 3.42344 0 4.86486 0C6.28058 0 7.42598 0.430949 8.30116 1.29293C9.20205 2.18181 9.65251 3.34003 9.65251 4.76767C9.65251 6.0606 9.21494 7.13801 8.33977 7.99999C7.43888 8.88887 6.25483 9.33332 4.78764 9.33332H4.74903C3.33332 9.33332 2.18792 8.88887 1.31274 7.99999C0.437568 7.1111 0 5.99324 0 4.64646ZM0.50193 39.9999V13.0101H9.07336V39.9999H0.50193ZM13.8224 39.9999H22.3938V24.9292C22.3938 23.9865 22.4968 23.2592 22.7027 22.7474C23.063 21.8316 23.61 21.0572 24.3436 20.4242C25.0772 19.7912 25.9974 19.4747 27.1042 19.4747C29.9871 19.4747 31.4286 21.5084 31.4286 25.5757V39.9999H40V24.5252C40 20.5387 39.0991 17.5151 37.2973 15.4545C35.4955 13.3939 33.1146 12.3636 30.1544 12.3636C26.834 12.3636 24.2471 13.8586 22.3938 16.8485V16.9293H22.3552L22.3938 16.8485V13.0101H13.8224C13.8739 13.872 13.8996 16.5521 13.8996 21.0505C13.8996 25.5488 13.8739 31.8652 13.8224 39.9999Z" fill="#212121"/>
</svg>
